<svg version="1.1" id="Layer_1" xmlns="http://www.w3.org/2000/svg" x="0" y="0" viewBox="0 0 125 125" xml:space="preserve">
  <style>
    .st0{fill:#e3eaec}
  </style>
  <g id="XMLID_688_">
    <path class="st0" d="M77.1 71.7c-.1 0-.3 0-.4-.1-.4-.2-.6-.6-.6-1l2.1-16.5h-1.1c-.6 0-1-.4-1-1s.4-1 1-1h2.2c.3 0 .6.1.7.3.2.2.3.5.2.8l-1.8 14.3 13.2-15.1c.2-.2.5-.3.8-.3h13.2c4.3 0 7.8-3.5 7.8-7.8V26.8c0-4.3-3.5-7.8-7.8-7.8H61.7c-4.3 0-7.8 3.5-7.8 7.8 0 .6-.4 1-1 1s-1-.4-1-1c0-5.4 4.4-9.8 9.8-9.8h43.9c5.4 0 9.8 4.4 9.8 9.8v17.6c0 5.4-4.4 9.8-9.8 9.8H92.9L77.8 71.4c-.2.2-.5.3-.7.3z"/>
    <path class="st0" d="M92.4 111.3c-.4 0-.9-.3-1-.8l-2.1-8.3c-.8-3.1-3.1-5.6-6.1-6.6l-15.2-5c-5.5-2.3-7.6-6.5-7.6-8.6 0-.3.1-.6.4-.8 2.4-2 4.8-5.3 4.8-7.8 0-2.7 1.2-3.8 1.9-4.2.4-1 1.5-4.1 1.5-6-.1-.3-.4-.9-.7-.9-.6 0-1-.4-1-1V51.1c0-5.5-1.9-6.6-2.7-7.1-.4-.2-.8-.5-.9-1.1 0-.2 0-.4.1-.6-.2-1.7-2.5-5.6-11-5.6-9.6 0-14.5 9.3-14.5 14.5v10.3c0 .6-.4 1-1 1-.4 0-.6.6-.7.9.1 2 1.1 5 1.5 6 .7.4 1.9 1.5 1.9 4.2 0 2.5 2.4 5.9 4.8 7.8.2.2.4.5.4.8 0 2.1-2 6.3-7.5 8.6l-15.3 5.1c-3 1-5.3 3.5-6.1 6.6l-2.1 8.3c-.1.5-.7.9-1.2.7-.5-.1-.9-.7-.7-1.2l2.1-8.3c.9-3.8 3.7-6.8 7.4-8l15.3-5.1c4.2-1.7 5.9-4.8 6.1-6.3-2.6-2.3-5.1-5.9-5.1-9 0-2.1-1-2.5-1-2.5-.3-.1-.5-.3-.6-.6-.1-.2-1.8-4.5-1.8-7.2v-.2c.2-.7.7-1.8 1.7-2.3v-9.5c0-6.9 6.3-16.5 16.5-16.5 9.3 0 12.9 4.7 13 7.7 1.1.7 3.4 2.5 3.4 8.7v9.5c1 .5 1.5 1.5 1.7 2.3v.2c0 2.7-1.7 7.1-1.8 7.2-.1.3-.4.5-.7.6 0 0-1 .4-1 2.5 0 3.2-2.5 6.7-5.1 9 .3 1.5 2 4.5 6.2 6.3l15.2 5.1c3.7 1.2 6.5 4.2 7.4 8l2.1 8.3c.1.5-.2 1.1-.7 1.2 0-.1-.1-.1-.2-.1zM65.6 43.2z"/>
  </g>
  <g id="XMLID_685_">
    <path d="M75.1 69.3c-.1 0-.3 0-.4-.1-.4-.2-.6-.6-.6-1l2.1-16.5h-1.1c-.6 0-1-.4-1-1s.4-1 1-1h2.2c.3 0 .6.1.7.3.2.2.3.5.2.8l-1.8 14.3L89.8 50c.2-.2.5-.3.8-.3h13.2c4.3 0 7.8-3.5 7.8-7.8V24.3c0-4.3-3.5-7.8-7.8-7.8h-44c-4.3 0-7.8 3.5-7.8 7.8 0 .6-.4 1-1 1s-1-.4-1-1c0-5.4 4.4-9.8 9.8-9.8h43.9c5.4 0 9.8 4.4 9.8 9.8v17.6c0 5.4-4.4 9.8-9.8 9.8H91L75.9 68.9c-.2.3-.5.4-.8.4z" fill="#1080d0"/>
    <path d="M90.5 108.8c-.4 0-.9-.3-1-.8l-2.1-8.3c-.8-3.1-3.1-5.6-6.1-6.6L66 88c-5.5-2.3-7.6-6.5-7.6-8.6 0-.3.1-.6.4-.8 2.4-2 4.8-5.3 4.8-7.8 0-2.7 1.2-3.8 1.9-4.2.4-1 1.5-4.1 1.5-6-.1-.3-.4-.9-.7-.9-.6 0-1-.4-1-1V48.6c0-5.5-1.9-6.6-2.7-7.1-.4-.2-.8-.5-.9-1.1 0-.2 0-.4.1-.6-.2-1.7-2.5-5.6-11-5.6-9.6 0-14.5 9.3-14.5 14.5V59c0 .6-.4 1-1 1-.4 0-.6.6-.7.9 0 1.8 1 4.7 1.5 6 .7.4 1.9 1.5 1.9 4.2 0 2.5 2.4 5.9 4.8 7.8.2.2.4.5.4.8 0 2.1-2 6.3-7.5 8.6l-15.3 5.1c-3 1-5.3 3.5-6.1 6.6l-2.1 8.3c-.1.5-.7.9-1.2.7-.5-.1-.9-.7-.7-1.2l2.1-8.3c.9-3.8 3.7-6.8 7.4-8l15.3-5.1c4.2-1.7 5.9-4.8 6.1-6.3-2.6-2.3-5.1-5.9-5.1-9 0-2.1-1-2.5-1-2.5-.3-.1-.5-.3-.6-.6-.1-.2-1.8-4.5-1.8-7.2v-.2c.2-.7.7-1.8 1.7-2.3v-9.5c0-6.9 6.3-16.5 16.5-16.5 9.3 0 12.9 4.7 13 7.7 1.1.7 3.4 2.5 3.4 8.7v9.5c1 .5 1.5 1.5 1.7 2.3v.2c0 2.7-1.7 7.1-1.8 7.2-.1.3-.4.5-.7.6 0 0-1 .4-1 2.5 0 3.2-2.5 6.7-5.1 9 .3 1.5 2 4.5 6.2 6.3l15.4 5c3.7 1.2 6.5 4.2 7.4 8l2.1 8.3c.1.5-.2 1.1-.7 1.2h-.3zM63.7 40.7z" fill="#45515b"/>
  </g>
</svg>
