<svg version="1.1" id="Layer_1" xmlns="http://www.w3.org/2000/svg" x="0" y="0" viewBox="0 0 125 125" xml:space="preserve">
  <style>
    .st0{fill:#e3eaec}.st1{fill:#1080d0}.st2{fill:#45515b}
  </style>
  <g id="XMLID_802_">
    <g id="XMLID_810_">
      <g id="XMLID_811_">
        <g id="XMLID_812_">
          <g id="XMLID_814_">
            <path class="st0" d="M96.2 115.1c-.2 0-.4-.1-.6-.2-.2-.2-.4-.4-.4-.7-.2-1.7-1.6-3.1-3.3-3.1-1.7 0-3.1 1.3-3.3 3.1 0 .3-.2.5-.4.7s-.5.2-.8.2c-4.9-1-9.3-3.5-12.7-7.4-.2-.2-.3-.5-.2-.8 0-.3.2-.5.4-.7 1.4-1.1 1.8-2.9.9-4.4-.8-1.5-2.6-2-4.2-1.4-.3.1-.5.1-.8 0s-.4-.3-.5-.6c-.9-2.6-1.3-5-1.3-7.3s.4-4.7 1.3-7.3c.1-.3.3-.5.5-.6.3-.1.5-.1.8 0 1.6.7 3.4.1 4.2-1.4.8-1.5.5-3.3-.9-4.4-.2-.2-.4-.4-.4-.7s.1-.6.2-.8c3.4-3.9 7.8-6.4 12.7-7.4.3-.1.6 0 .8.2.2.2.4.4.4.7.2 1.7 1.6 3.1 3.3 3.1 1.7 0 3.1-1.3 3.3-3.1 0-.3.2-.5.4-.7.2-.2.5-.2.8-.2 4.9 1 9.3 3.5 12.7 7.4.2.2.3.5.2.8s-.2.5-.4.7c-1.4 1.1-1.8 2.9-1 4.4.8 1.5 2.6 2 4.2 1.4.3-.1.5-.1.8 0 .3.1.4.3.5.6.9 2.6 1.3 5 1.3 7.3s-.4 4.7-1.3 7.3c-.1.3-.3.5-.5.6-.3.1-.5.1-.8 0-1.6-.7-3.4-.1-4.2 1.4-.8 1.5-.4 3.3 1 4.4.2.2.4.4.4.7 0 .3-.1.6-.2.8-3.4 3.9-7.8 6.4-12.7 7.4h-.2zm-19.4-8c2.8 2.9 6.2 4.9 10 5.8.7-2.2 2.7-3.8 5.1-3.8 2.4 0 4.4 1.6 5.1 3.8 3.8-.9 7.2-2.9 10-5.8-1.5-1.7-1.8-4.2-.7-6.2 1.2-2 3.5-3 5.7-2.5.6-2 .9-3.9.9-5.8s-.3-3.7-.9-5.8c-2.2.5-4.6-.5-5.7-2.5-1.2-2-.8-4.5.7-6.2-2.8-2.9-6.2-4.9-10-5.8-.7 2.2-2.7 3.8-5.1 3.8-2.4 0-4.4-1.6-5.1-3.8-3.8.9-7.2 2.9-10 5.8 1.5 1.7 1.8 4.2.7 6.2-1.2 2-3.5 3-5.7 2.5-.6 2-.9 3.9-.9 5.8s.3 3.7.9 5.8c2.2-.5 4.6.5 5.7 2.5 1.2 2 .8 4.5-.7 6.2zm30.3-5.7z" id="XMLID_815_"/>
          </g>
          <path class="st0" d="M91.9 102.4c-5.4 0-9.8-4.4-9.8-9.8s4.4-9.8 9.8-9.8 9.8 4.4 9.8 9.8-4.4 9.8-9.8 9.8zm0-17.6c-4.3 0-7.8 3.5-7.8 7.8s3.5 7.8 7.8 7.8 7.8-3.5 7.8-7.8c-.1-4.3-3.5-7.8-7.8-7.8z"/>
        </g>
      </g>
    </g>
    <g id="XMLID_803_">
      <path class="st0" d="M61.1 111.2c-27.2 0-49.3-22.1-49.3-49.3s22.1-49.3 49.3-49.3 49.3 22.1 49.3 49.3c0 1.7-.1 3.5-.3 5.4-.1.5-.5.9-1.1.9-.5-.1-.9-.6-.9-1.1.2-1.8.3-3.5.3-5.2 0-26.1-21.2-47.3-47.3-47.3S13.8 35.7 13.8 61.8s21.2 47.3 47.3 47.3c1.7 0 3.4-.1 5.2-.3.5-.1 1 .3 1.1.9.1.5-.3 1-.9 1.1-1.9.2-3.7.4-5.4.4z"/>
      <path class="st0" d="M61.1 111.2C46 111.2 33.7 89 33.7 61.8S46 12.5 61.1 12.5s27.4 22.1 27.4 49.3c0 .6-.4 1-1 1s-1-.4-1-1c0-26.1-11.4-47.3-25.4-47.3S35.7 35.7 35.7 61.8s11.4 47.3 25.4 47.3c.6 0 1 .4 1 1s-.4 1.1-1 1.1z"/>
      <path class="st0" d="M61.1 111.2c-.6 0-1-.4-1-1V13.5c0-.6.4-1 1-1s1 .4 1 1v96.7c0 .5-.4 1-1 1z"/>
      <path class="st0" d="M109.4 62.8H12.8c-.6 0-1-.4-1-1s.4-1 1-1h96.7c.6 0 1 .4 1 1s-.5 1-1.1 1zM100.6 36.5h-79c-.6 0-1-.4-1-1s.4-1 1-1h79.1c.6 0 1 .4 1 1s-.5 1-1.1 1zM61.1 89.2H21.6c-.6 0-1-.4-1-1s.4-1 1-1h39.5c.6 0 1 .4 1 1s-.4 1-1 1z"/>
    </g>
  </g>
  <g id="XMLID_787_">
    <g id="XMLID_795_">
      <g id="XMLID_796_">
        <g id="XMLID_797_">
          <g id="XMLID_799_">
            <path class="st1" d="M94.2 112.6c-.2 0-.4-.1-.6-.2-.2-.2-.4-.4-.4-.7-.2-1.7-1.6-3.1-3.3-3.1-1.7 0-3.1 1.3-3.3 3.1 0 .3-.2.5-.4.7s-.5.2-.8.2c-4.9-1-9.3-3.5-12.7-7.4-.2-.2-.3-.5-.2-.8 0-.3.2-.5.4-.7 1.4-1.1 1.8-2.9 1-4.4-.8-1.5-2.6-2-4.2-1.4-.3.1-.5.1-.8 0-.3-.1-.4-.3-.5-.6-.9-2.6-1.3-5-1.3-7.3 0-2.4.4-4.7 1.3-7.3.1-.3.3-.5.5-.6.3-.1.5-.1.8 0 1.6.7 3.4.1 4.2-1.4.8-1.5.4-3.3-1-4.4-.2-.2-.4-.4-.4-.7s.1-.6.2-.8c3.4-3.9 7.8-6.4 12.7-7.4.3-.1.6 0 .8.2s.4.4.4.7c.2 1.7 1.6 3.1 3.3 3.1 1.7 0 3.1-1.3 3.3-3.1 0-.3.2-.5.4-.7.2-.2.5-.2.8-.2 4.9 1 9.3 3.5 12.7 7.4.2.2.3.5.2.8s-.2.5-.4.7c-1.4 1.1-1.8 2.9-.9 4.4.8 1.5 2.6 2 4.2 1.4.3-.1.5-.1.8 0 .3.1.4.3.5.6.9 2.6 1.3 5 1.3 7.3 0 2.4-.4 4.7-1.3 7.3-.1.3-.3.5-.5.6-.3.1-.5.1-.8 0-1.6-.7-3.4-.1-4.2 1.4-.8 1.5-.5 3.3.9 4.4.2.2.4.4.4.7 0 .3-.1.6-.2.8-3.4 3.9-7.8 6.4-12.7 7.4h-.2zm-19.3-8c2.8 2.9 6.2 4.9 10 5.8.7-2.2 2.7-3.8 5.1-3.8 2.4 0 4.4 1.6 5.1 3.8 3.8-.9 7.2-2.9 10-5.8-1.5-1.7-1.8-4.2-.7-6.2 1.2-2 3.5-3 5.7-2.5.6-2 .9-3.9.9-5.8 0-1.8-.3-3.7-.9-5.8-2.2.5-4.6-.5-5.7-2.5-1.2-2-.8-4.5.7-6.2-2.8-2.9-6.2-4.9-10-5.8-.7 2.2-2.7 3.8-5.1 3.8-2.4 0-4.4-1.6-5.1-3.8-3.8.9-7.2 2.9-10 5.8 1.5 1.7 1.8 4.2.7 6.2-1.2 2-3.5 3-5.7 2.5-.6 2-.9 3.9-.9 5.8 0 1.8.3 3.7.9 5.8 2.2-.5 4.6.5 5.7 2.5 1.1 2 .8 4.5-.7 6.2zm30.3-5.7z" id="XMLID_800_"/>
          </g>
          <path class="st1" d="M89.9 99.9c-5.4 0-9.8-4.4-9.8-9.8s4.4-9.8 9.8-9.8 9.8 4.4 9.8 9.8-4.4 9.8-9.8 9.8zm0-17.6c-4.3 0-7.8 3.5-7.8 7.8s3.5 7.8 7.8 7.8 7.8-3.5 7.8-7.8-3.5-7.8-7.8-7.8z"/>
        </g>
      </g>
    </g>
    <g id="XMLID_788_">
      <path class="st2" d="M59.2 108.7C32 108.7 9.8 86.5 9.8 59.3S32 10 59.2 10s49.3 22.1 49.3 49.3c0 1.7-.1 3.5-.3 5.4-.1.5-.5.9-1.1.9-.5-.1-.9-.6-.9-1.1.2-1.8.3-3.5.3-5.2 0-26.1-21.2-47.3-47.3-47.3S11.8 33.2 11.8 59.3s21.2 47.3 47.3 47.3c1.7 0 3.4-.1 5.2-.3.6-.1 1 .3 1.1.9.1.5-.3 1-.9 1.1-1.8.3-3.6.4-5.3.4z"/>
      <path class="st2" d="M59.2 108.7c-15.1 0-27.4-22.1-27.4-49.3C31.8 32.1 44.1 10 59.2 10c15.1 0 27.4 22.1 27.4 49.3 0 .6-.4 1-1 1s-1-.4-1-1C84.5 33.2 73.2 12 59.2 12c-14 0-25.4 21.2-25.4 47.3s11.4 47.3 25.4 47.3c.6 0 1 .4 1 1s-.5 1.1-1 1.1z"/>
      <path class="st2" d="M59.2 108.7c-.6 0-1-.4-1-1V11c0-.6.4-1 1-1s1 .4 1 1v96.7c0 .5-.5 1-1 1z"/>
      <path class="st2" d="M107.5 60.3H10.8c-.6 0-1-.4-1-1s.4-1 1-1h96.7c.6 0 1 .4 1 1s-.4 1-1 1zM98.7 34H19.6c-.6 0-1-.4-1-1s.4-1 1-1h79.1c.6 0 1 .4 1 1s-.4 1-1 1zM59.2 86.7H19.6c-.6 0-1-.4-1-1s.4-1 1-1h39.5c.6 0 1 .4 1 1s-.4 1-.9 1z"/>
    </g>
  </g>
</svg>
