<svg version="1.1" id="Layer_1" xmlns="http://www.w3.org/2000/svg" x="0" y="0" viewBox="0 0 125 125" xml:space="preserve">
  <style>
    .st0,.st2{fill:none;stroke:#e8e8e8;stroke-width:2;stroke-linecap:round;stroke-linejoin:round;stroke-miterlimit:10}.st2{stroke:#4f4f4f}
  </style>
  <path id="XMLID_638_" class="st0" d="M98.8 40.9v68.8H35c-5.6 0-9-4.5-9-10.1V30.8"/>
  <path id="XMLID_636_" class="st0" d="M46.2 40.9H37c-5.6 0-11-4.5-11-10.1v-4c0-5.6 5.4-10.1 11-10.1h61.8c-5.3 5.3-5.2 19.1 0 24.3H70.5"/>
  <path id="XMLID_631_" fill="none" stroke="#e8e8e8" stroke-width="2" stroke-linecap="round" stroke-miterlimit="10" d="M36.1 28.7h58.6"/>
  <path id="XMLID_629_" class="st0" d="M46.2 28.7v48.6l12.1-12.1 12.2 12.1V28.7"/>
  <path id="XMLID_634_" class="st2" d="M97.1 39.5v68.8H33.3c-5.6 0-9-4.5-9-10.1V29.3"/>
  <path id="XMLID_630_" fill="none" stroke="#1080d0" stroke-width="2" stroke-linecap="round" stroke-linejoin="round" stroke-miterlimit="10" d="M44.5 27.3v48.6l12.2-12.1 12.1 12.1V27.3"/>
  <path id="XMLID_633_" class="st2" d="M44.5 39.5h-9.2c-5.6 0-11-4.5-11-10.1v-4c0-5.6 5.4-10.1 11-10.1h61.8c-5.3 5.3-5.2 19.1 0 24.3H68.8"/>
  <path id="XMLID_632_" fill="none" stroke="#4f4f4f" stroke-width="2" stroke-linecap="round" stroke-miterlimit="10" d="M34.4 27.3h58.7"/>
</svg>
