<svg version="1.1" id="Layer_1" xmlns="http://www.w3.org/2000/svg" x="0" y="0" viewBox="0 0 125 125" xml:space="preserve">
  <style>
    .st0{fill:#e3eaec}.st1{fill:#1080d0}.st2{fill:#45515b}
  </style>
  <g id="XMLID_734_">
    <path class="st0" d="M77.1 54.9H36.3c-.6 0-1-.4-1-1s.4-1 1-1h40.8c.6 0 1 .4 1 1s-.5 1-1 1zM77.1 40.3H60c-.6 0-1-.4-1-1s.4-1 1-1h17.1c.6 0 1 .4 1 1s-.5 1-1 1zM77.1 69.6H36.3c-.6 0-1-.4-1-1s.4-1 1-1h40.8c.6 0 1 .4 1 1s-.5 1-1 1zM77.1 84.2H36.3c-.6 0-1-.4-1-1s.4-1 1-1h40.8c.6 0 1 .4 1 1s-.5 1-1 1z"/>
  </g>
  <g id="XMLID_727_">
    <g id="XMLID_729_">
      <g id="XMLID_730_">
        <g id="XMLID_731_">
          <path class="st0" d="M89.7 102.1H23.8c-.6 0-1-.4-1-1V39.6c0-.3.1-.5.3-.7l26.4-26.4c.2-.2.4-.3.7-.3h39.5c.6 0 1 .4 1 1v87.9c0 .6-.5 1-1 1zm-64.9-2h63.9V14.3H50.5L24.8 40v60.1z"/>
          <path class="st0" d="M50.1 40.6H23.8c-.6 0-1-.4-1-1s.4-1 1-1h25.4V13.3c0-.6.4-1 1-1s1 .4 1 1v26.4c-.1.5-.5.9-1.1.9z"/>
        </g>
      </g>
    </g>
    <path class="st0" d="M102.8 115.3H36.9c-.6 0-1-.4-1-1v-13.2c0-.6.4-1 1-1s1 .4 1 1v12.2h63.9V27.4H89.7c-.6 0-1-.4-1-1s.4-1 1-1h13.2c.6 0 1 .4 1 1v87.9c-.1.6-.5 1-1.1 1z"/>
  </g>
  <g id="XMLID_722_">
    <path class="st1" d="M75.2 52.4H34.4c-.6 0-1-.4-1-1s.4-1 1-1h40.8c.6 0 1 .4 1 1s-.5 1-1 1zM75.2 37.8H58c-.6 0-1-.4-1-1s.4-1 1-1h17.1c.6 0 1 .4 1 1s-.4 1-.9 1zM75.2 67.1H34.4c-.6 0-1-.4-1-1s.4-1 1-1h40.8c.6 0 1 .4 1 1s-.5 1-1 1zM75.2 81.7H34.4c-.6 0-1-.4-1-1s.4-1 1-1h40.8c.6 0 1 .4 1 1s-.5 1-1 1z"/>
  </g>
  <g id="XMLID_715_">
    <g id="XMLID_717_">
      <g id="XMLID_718_">
        <g id="XMLID_719_">
          <path class="st2" d="M87.7 99.7H21.8c-.6 0-1-.4-1-1V37.2c0-.3.1-.5.3-.7l26.4-26.4c.2-.2.4-.3.7-.3h39.5c.6 0 1 .4 1 1v87.9c0 .5-.4 1-1 1zm-64.9-2h63.9V11.8H48.6L22.8 37.6v60.1z"/>
          <path class="st2" d="M48.2 38.2H21.8c-.6 0-1-.4-1-1s.4-1 1-1h25.4V10.8c0-.6.4-1 1-1s1 .4 1 1v26.4c0 .5-.5 1-1 1z"/>
        </g>
      </g>
    </g>
    <path class="st2" d="M100.9 112.9H35c-.6 0-1-.4-1-1V98.7c0-.6.4-1 1-1s1 .4 1 1v12.2h63.9V25H87.7c-.6 0-1-.4-1-1s.4-1 1-1h13.2c.6 0 1 .4 1 1v87.9c0 .5-.4 1-1 1z"/>
  </g>
</svg>
