<svg version="1.1" id="Layer_1" xmlns="http://www.w3.org/2000/svg" x="0" y="0" viewBox="0 0 125 125" xml:space="preserve">
  <style>
    .st0{fill:#e3eaec}.st1{fill:#1080d0}
  </style>
  <path class="st0" d="M110.9 89.2c-.4 0-.8-.3-.8-.7l-.9-3.6c-.3-1.2-1.2-2.2-2.4-2.6l-6.7-2.2c-2.7-1.1-3.6-3.1-3.6-4.2 0-.3.1-.5.3-.7.9-.8 1.9-2.1 1.9-3.1 0-1.2.5-1.8.9-2.1.2-.5.5-1.5.6-2.3-.4-.1-.7-.4-.7-.9v-4.5c0-2.1-.7-2.6-1-2.8-.2-.1-.5-.3-.6-.8v-.3c-.2-.7-1.2-2-4.4-2-3.9 0-5.9 3.8-5.9 5.9v4.5c0 .4-.3.8-.7.9 0 .7.4 1.8.6 2.3.4.3.9.9.9 2.1 0 1 1 2.3 1.9 3.1.2.2.3.4.3.7 0 1.1-.9 3.1-3.6 4.2l-2.7.9-.2-.1c-.2-.1-.3-.2-.4-.3-.1-.1-.3-.1-.4-.2l-1.2-.5 4.5-1.5c1.5-.6 2.1-1.6 2.3-2.2-1.1-1-2.2-2.6-2.2-4.1 0-.5-.1-.7-.2-.7-.2-.1-.4-.3-.5-.5-.1-.3-.8-2.1-.8-3.3v-.2c.1-.4.3-.8.7-1.1v-3.9c0-3.2 2.9-7.7 7.7-7.7 4.2 0 5.9 2.1 6.1 3.6.7.5 1.5 1.5 1.5 4.1v3.9c.4.3.6.8.7 1.1v.2c0 1.3-.7 3.1-.8 3.3-.1.2-.3.4-.5.5 0 0-.2.2-.2.7 0 1.5-1.1 3.1-2.2 4.1.2.6.9 1.6 2.4 2.2l6.6 2.2c1.8.6 3.1 2 3.5 3.8l.9 3.6c.1.2 0 .5-.1.7-.1.2-.3.3-.5.4 0 .1 0 .1-.1.1z"/>
  <path class="st0" d="M111.3 88.2l-.9-3.6c-.4-1.7-1.6-3-3.2-3.5l-6.7-2.2c-1.9-.8-2.6-2.1-2.7-2.8 1.1-1 2.2-2.6 2.2-4 0-.9.4-1.1.4-1.1.1 0 .2-.1.3-.3 0-.1.8-2 .8-3.2v-.1c-.1-.3-.3-.8-.7-1v-4.2c0-2.8-1-3.5-1.5-3.8 0-1.3-1.6-3.4-5.7-3.4-4.5 0-7.2 4.2-7.2 7.2v4.2c-.4.2-.7.7-.7 1v.1c0 1.2.8 3.1.8 3.2 0 .1.2.2.3.3 0 0 .4.2.4 1.1 0 1.4 1.1 2.9 2.2 4-.1.7-.9 2-2.7 2.7l-3.3 1.1c.2.1.4.1.5.2.2.1.3.2.5.3l2.6-.9c2.4-1 3.3-2.8 3.3-3.8 0-.1-.1-.3-.2-.3-1-.9-2.1-2.3-2.1-3.4 0-1.2-.5-1.6-.8-1.8-.2-.5-.6-1.8-.7-2.6 0-.1.2-.4.3-.4.2 0 .4-.2.4-.4v-4.5c0-2.3 2.1-6.3 6.3-6.3 3.7 0 4.7 1.7 4.8 2.5v.3c0 .3.2.4.4.5.3.2 1.2.7 1.2 3.1v4.5c0 .2.2.4.4.4s.3.3.3.4c0 .9-.5 2.2-.7 2.6-.3.2-.8.7-.8 1.8S98 74.7 97 75.5c-.1.1-.2.2-.2.3 0 .9.9 2.8 3.3 3.8l6.7 2.2c1.3.4 2.3 1.5 2.7 2.9l.9 3.6c0 .2.2.3.4.3h.1c.3.1.5-.2.4-.4zM108.3 92.5z"/>
  <path class="st1" d="M110.7 88.1c-.4 0-.8-.3-.8-.7l-.9-3.6c-.3-1.2-1.2-2.2-2.4-2.6L99.9 79c-2.7-1.1-3.6-3.1-3.6-4.2 0-.3.1-.5.3-.7.9-.8 1.9-2.1 1.9-3.1 0-1.2.5-1.8.9-2.1.2-.5.5-1.5.6-2.3-.4-.1-.7-.4-.7-.9v-4.5c0-2.1-.7-2.6-1-2.8-.2-.1-.5-.3-.6-.8v-.3c-.2-.7-1.2-2-4.4-2-3.9 0-5.9 3.8-5.9 5.9v4.5c0 .4-.3.8-.7.9 0 .6.3 1.6.6 2.3.4.3.9.9.9 2.1 0 1 1 2.3 1.9 3.1.2.2.3.4.3.7 0 1.1-.9 3.1-3.6 4.2L82 80.6v-.3c-.2-.2-.4-.5-.6-.6l-.6-.5 5.4-1.8c1.5-.6 2.1-1.6 2.3-2.2-1.1-1-2.2-2.6-2.2-4.1 0-.5-.1-.7-.2-.7-.2-.1-.4-.3-.5-.5-.1-.2-.8-2.1-.8-3.3v-.2c.1-.4.3-.8.7-1.1v-3.9c0-3.2 2.9-7.7 7.7-7.7 4.2 0 5.9 2.1 6.1 3.6.7.5 1.5 1.5 1.5 4.1v3.9c.4.3.6.8.7 1.1v.2c0 1.3-.7 3.1-.8 3.3-.1.2-.3.4-.5.5 0 0-.2.2-.2.7 0 1.5-1.1 3.1-2.2 4.1.2.6.9 1.6 2.4 2.2l6.6 2.2c1.8.6 3.1 2 3.5 3.8l.9 3.6c.1.5-.2.9-.6 1.1h.1z"/>
  <path class="st1" d="M111.1 87.1l-.9-3.6c-.4-1.7-1.6-3-3.2-3.5l-6.7-2.2c-1.9-.8-2.6-2.1-2.7-2.8 1.1-1 2.2-2.6 2.2-4 0-.9.4-1.1.4-1.1.1 0 .2-.1.3-.3 0-.1.8-2 .8-3.2v-.1c-.1-.3-.3-.8-.7-1v-4.2c0-2.8-1-3.5-1.5-3.8 0-1.3-1.6-3.4-5.7-3.4-4.5 0-7.2 4.2-7.2 7.2v4.2c-.4.2-.7.7-.7 1v.1c0 1.2.8 3.1.8 3.2 0 .1.2.2.3.3 0 0 .4.2.4 1.1 0 1.4 1.1 2.9 2.2 4-.1.7-.9 2-2.7 2.7l-4.7 1.6c.2.2.4.5.6.7l4.4-1.5c2.4-1 3.3-2.8 3.3-3.8 0-.1-.1-.3-.2-.3-1-.9-2.1-2.3-2.1-3.4 0-1.2-.5-1.6-.8-1.8-.2-.6-.6-1.8-.7-2.6 0-.1.2-.4.3-.4.2 0 .4-.2.4-.4v-4.5c0-2.3 2.1-6.3 6.3-6.3 3.7 0 4.7 1.7 4.8 2.5v.3c0 .3.2.4.4.5.3.2 1.2.7 1.2 3.1v4.5c0 .2.2.4.4.4s.3.3.3.4c0 .9-.5 2.2-.7 2.6-.3.2-.8.7-.8 1.8s-1.1 2.6-2.1 3.4c-.1.1-.2.2-.2.3 0 .9.9 2.8 3.3 3.8l6.7 2.2c1.3.4 2.3 1.5 2.7 2.9l.9 3.6c0 .2.2.3.4.3h.1c.3 0 .5-.3.4-.5zM107.8 90z"/>
  <path class="st0" d="M15.6 89.2h-.2a.8.8 0 01-.6-1.1l.9-3.6c.4-1.8 1.8-3.2 3.5-3.8l6.7-2.2c1.5-.6 2.1-1.6 2.3-2.2-1.1-1-2.2-2.6-2.2-4.1 0-.5-.1-.7-.2-.7-.2-.1-.4-.3-.5-.5-.1-.3-.8-2.1-.8-3.3v-.2c.1-.4.3-.8.7-1.1v-3.9c0-3.2 2.9-7.7 7.7-7.7 4.2 0 5.9 2.1 6.1 3.6.7.5 1.5 1.5 1.5 4.1v3.9c.4.3.6.8.7 1.1v.2c0 1.3-.7 3.1-.8 3.3-.1.2-.3.4-.5.5 0 0-.2.2-.2.7 0 1.5-1.1 3.1-2.2 4.1.2.6.9 1.6 2.4 2.2l2.5.8-1.2.4c-.3.1-.7.3-1 .5l-.2.1-.8-.3c-2.7-1.1-3.6-3.1-3.6-4.2 0-.3.1-.5.3-.7.9-.8 1.9-2.1 1.9-3.1 0-1.2.5-1.8.9-2.1.2-.5.5-1.5.6-2.3-.4-.1-.7-.4-.7-.9v-4.5c0-2.1-.7-2.6-1-2.8-.2-.1-.5-.3-.6-.8v-.3c-.2-.7-1.2-2-4.4-2-3.9 0-5.9 3.8-5.9 5.9v4.5c0 .4-.3.8-.7.9 0 .7.4 1.8.6 2.3.4.3.9.9.9 2.1 0 1 1 2.3 1.9 3.1.2.2.3.4.3.7 0 1.1-.9 3.1-3.6 4.2l-6.7 2.3c-1.2.4-2.1 1.4-2.4 2.6l-.9 3.6c.2.4-.1.7-.5.7z"/>
  <path class="st0" d="M40.2 79.9c.3-.2.7-.4 1.1-.6l-1.4-.5c-1.9-.8-2.6-2.1-2.7-2.8 1.1-1 2.2-2.6 2.2-4 0-.9.4-1.1.4-1.1.1 0 .2-.1.3-.3 0-.1.8-2 .8-3.2v-.1c-.1-.3-.3-.8-.7-1v-4.2c0-2.8-1-3.5-1.5-3.8 0-1.3-1.6-3.4-5.7-3.4-4.5 0-7.2 4.2-7.2 7.2v4.2c-.4.2-.7.7-.7 1v.1c0 1.2.8 3.1.8 3.2 0 .1.2.2.3.3 0 0 .4.2.4 1.1 0 1.4 1.1 2.9 2.2 4-.1.7-.9 2-2.7 2.7l-6.7 2.2c-1.6.5-2.8 1.8-3.2 3.5l-.9 3.6c-.1.2.1.5.3.5.2.1.5-.1.5-.3l.9-3.6c.3-1.4 1.3-2.4 2.7-2.9l6.7-2.2c2.4-1 3.3-2.8 3.3-3.8 0-.1-.1-.3-.2-.3-1-.9-2.1-2.3-2.1-3.4 0-1.2-.5-1.6-.8-1.8-.2-.5-.6-1.8-.7-2.6 0-.1.2-.4.3-.4.2 0 .4-.2.4-.4v-4.5c0-2.3 2.1-6.3 6.3-6.3 3.7 0 4.7 1.7 4.8 2.5v.3c0 .3.2.4.4.5.3.2 1.2.7 1.2 3.1v4.5c0 .2.2.4.4.4s.3.3.3.4c0 .9-.5 2.2-.7 2.6-.3.2-.8.7-.8 1.8s-1.1 2.6-2.1 3.4c-.1.1-.2.2-.2.3 0 .9.9 2.8 3.3 3.8l.7.3z"/>
  <path class="st1" d="M14.8 88.1h-.2A.8.8 0 0114 87l.9-3.6c.4-1.8 1.8-3.2 3.5-3.8l6.7-2.2c1.5-.6 2.1-1.6 2.3-2.2-1.1-1-2.2-2.6-2.2-4.1 0-.6-.2-.7-.2-.7-.2-.1-.4-.3-.5-.5-.1-.3-.8-2.1-.8-3.3v-.2c.1-.4.3-.8.7-1.1v-3.9c0-3.2 2.9-7.7 7.7-7.7 4.2 0 5.9 2.1 6.1 3.6.7.5 1.5 1.5 1.5 4.1v3.9c.4.3.6.8.7 1.1v.2c0 1.2-.7 3-.8 3.3-.1.2-.3.4-.5.5 0 0-.2.2-.2.7 0 1.5-1.1 3.1-2.2 4.1.2.6.9 1.6 2.4 2.2l4.4 1.5-.5.5c-.2.2-.5.4-.7.6l-.2.2-3.5-1.2c-2.7-1.1-3.6-3.1-3.6-4.2 0-.3.1-.5.3-.7.9-.8 1.9-2.1 1.9-3.1 0-1.2.5-1.8.9-2.1.2-.5.5-1.5.6-2.3-.4-.1-.7-.4-.7-.9v-4.5c0-2.1-.7-2.6-1-2.8-.2-.1-.5-.3-.6-.8v-.3c-.2-.7-1.2-2-4.4-2-3.9 0-5.9 3.8-5.9 5.9v4.5c0 .4-.3.8-.7.9 0 .6.3 1.6.6 2.3.4.3.9.9.9 2.1 0 1 1 2.3 1.9 3.1.2.2.3.4.3.7 0 1.1-.9 3.1-3.6 4.2l-6.7 2.3c-1.2.4-2.1 1.4-2.4 2.6l-.9 3.6c0 .3-.3.6-.7.6z"/>
  <path class="st1" d="M42.7 79L39 77.8c-1.9-.8-2.6-2.1-2.7-2.8 1.1-1 2.2-2.6 2.2-4 0-.9.4-1.1.4-1.1.1 0 .2-.1.3-.3 0-.1.8-2 .8-3.2v-.1c-.1-.3-.3-.8-.7-1v-4.2c0-2.8-1-3.5-1.5-3.8 0-1.3-1.6-3.4-5.7-3.4-4.5 0-7.2 4.2-7.2 7.2v4.2c-.4.2-.7.7-.7 1v.1c0 1.2.8 3.1.8 3.2 0 .1.2.2.3.3 0 0 .4.2.4 1.1 0 1.4 1.1 2.9 2.2 4-.1.7-.9 2-2.7 2.7L18.5 80c-1.6.5-2.8 1.8-3.2 3.5l-.9 3.6c-.1.2.1.5.3.5.2.1.5-.1.5-.3l.9-3.6c.3-1.4 1.3-2.4 2.7-2.9l6.7-2.2c2.4-1 3.3-2.8 3.3-3.8 0-.1-.1-.3-.2-.3-1-.9-2.1-2.3-2.1-3.4 0-1.2-.5-1.6-.8-1.8-.2-.6-.6-1.8-.7-2.6 0-.1.2-.4.3-.4.2 0 .4-.2.4-.4v-4.5c0-2.3 2.1-6.3 6.3-6.3 3.7 0 4.7 1.7 4.8 2.5v.3c0 .3.2.4.4.5.3.2 1.2.7 1.2 3.1V66c0 .2.2.4.4.4s.3.3.3.4c0 .9-.5 2.2-.7 2.6-.3.2-.8.7-.8 1.8s-1.1 2.6-2.1 3.4c-.1.1-.2.2-.2.3 0 .9.9 2.8 3.3 3.8l3.3 1.1c.3-.4.5-.6.8-.8z"/>
  <path class="st0" d="M103.7 110.7c-.4 0-.9-.3-1-.8l-2.1-8.3c-.8-3.1-3.1-5.6-6.1-6.6l-15.3-5.1c-5.5-2.3-7.6-6.5-7.6-8.6 0-.3.1-.6.4-.8 2.4-2 4.8-5.3 4.8-7.8 0-2.7 1.2-3.8 1.9-4.2.4-1 1.5-4.1 1.5-6-.1-.3-.4-.9-.7-.9-.6 0-1-.4-1-1V50.5c0-5.5-1.9-6.6-2.7-7.1-.4-.2-.8-.5-.9-1.1 0-.2 0-.4.1-.6C75 40 72.7 36 64.2 36c-9.6 0-14.5 9.3-14.5 14.5v10.3c0 .6-.4 1-1 1-.4 0-.6.6-.7.9.1 2 1.1 5 1.5 6 .7.4 1.9 1.5 1.9 4.2 0 2.5 2.4 5.9 4.8 7.8.2.2.4.5.4.8 0 2.1-2 6.3-7.5 8.6l-15.3 5.1c-3 1-5.3 3.5-6.1 6.6l-2.1 8.3c-.1.5-.7.9-1.2.7-.5-.1-.9-.7-.7-1.2l2.1-8.3c.9-3.8 3.7-6.8 7.4-8l15.3-5.1c4.2-1.7 5.9-4.8 6.1-6.3-2.6-2.3-5.1-5.9-5.1-9 0-2.1-1-2.5-1-2.5-.3-.1-.5-.3-.6-.6-.1-.2-1.8-4.5-1.8-7.2v-.2c.2-.7.7-1.8 1.7-2.3v-9.5C47.7 43.6 54 34 64.2 34c9.3 0 12.9 4.7 13 7.7 1.1.7 3.4 2.5 3.4 8.7v9.5c1 .5 1.5 1.5 1.7 2.3v.2c0 2.7-1.7 7.1-1.8 7.2-.1.3-.4.5-.7.6 0 0-1 .4-1 2.5 0 3.2-2.5 6.7-5.1 9 .3 1.5 2 4.5 6.2 6.3l15.2 5.1c3.7 1.2 6.5 4.2 7.4 8l2.1 8.3c.1.5-.2 1.1-.7 1.2 0 .1-.1.1-.2.1zM76.9 42.6z"/>
  <path d="M101.8 108.3c-.4 0-.9-.3-1-.8l-2.1-8.3c-.8-3.1-3.1-5.6-6.1-6.6l-15.3-5.1c-5.5-2.3-7.6-6.5-7.6-8.6 0-.3.1-.6.4-.8 2.4-2 4.8-5.3 4.8-7.8 0-2.7 1.2-3.8 1.9-4.2.4-1 1.5-4.1 1.5-6-.1-.3-.4-.9-.7-.9-.6 0-1-.4-1-1V48c0-5.5-1.9-6.6-2.7-7.1-.4-.2-.8-.5-.9-1.1 0-.2 0-.4.1-.6-.2-1.7-2.5-5.6-11-5.6-9.6 0-14.5 9.3-14.5 14.5v10.3c0 .6-.4 1-1 1-.4 0-.6.6-.7.9 0 1.8 1 4.7 1.5 6 .7.4 1.9 1.5 1.9 4.2 0 2.5 2.4 5.9 4.8 7.8.2.2.4.5.4.8 0 2.1-2 6.3-7.5 8.6l-15.3 5.1c-3 1-5.3 3.5-6.1 6.6l-2.1 8.3c-.1.5-.7.9-1.2.7-.5-.1-.9-.7-.7-1.2l2.1-8.3c.9-3.8 3.7-6.8 7.4-8l15.3-5.1c4.2-1.7 5.9-4.8 6.1-6.3-2.6-2.3-5.1-5.9-5.1-9 0-2.1-1-2.5-1-2.5-.3-.1-.5-.3-.6-.6-.1-.2-1.8-4.5-1.8-7.2V60c.2-.7.7-1.8 1.7-2.3V48c0-6.9 6.3-16.5 16.5-16.5 9.3 0 12.9 4.7 13 7.7 1.1.7 3.4 2.5 3.4 8.7v9.5c1 .5 1.5 1.5 1.7 2.3v.2c0 2.7-1.7 7.1-1.8 7.2-.1.3-.4.5-.7.6 0 0-1 .4-1 2.5 0 3.2-2.5 6.7-5.1 9 .3 1.5 2 4.5 6.2 6.3l15.2 5.1c3.7 1.2 6.5 4.2 7.4 8l2.1 8.3c.1.5-.2 1.1-.7 1.2.1.2 0 .2-.1.2zM75 40.2z" fill="#45515b"/>
</svg>