<svg version="1.1" xmlns="http://www.w3.org/2000/svg" xmlns:xlink="http://www.w3.org/1999/xlink" x="0px" y="0px" viewBox="0 0 64 64" xml:space="preserve"><title>gift</title><g class="nc-icon-wrapper" stroke-linecap="square" stroke-linejoin="miter" stroke-width="4" fill="#f9a806" stroke="#f9a806"><g transform="translate(0 0)"><polyline fill="none" stroke="#f9a806" stroke-miterlimit="10" points="56,24 56,60 8,60 8,24 "/> <rect x="2" y="14" fill="none" stroke="#f9a806" stroke-miterlimit="10" width="60" height="10"/> <path data-color="color-2" fill="none" stroke-miterlimit="10" d="M14,8 c0-3.314,2.686-6,6-6c8.875,0,12,12,12,12s-8.686,0-12,0S14,11.314,14,8z"/> <path data-color="color-2" fill="none" stroke-miterlimit="10" d="M50,8 c0-3.314-2.686-6-6-6c-8.875,0-12,12-12,12s8.686,0,12,0S50,11.314,50,8z"/> <polyline data-color="color-2" fill="none" stroke-miterlimit="10" points=" 38,14 38,60 26,60 26,14 "/></g></g></svg>