<svg xmlns="http://www.w3.org/2000/svg" style="display: none;"><symbol id="icon-paper" viewBox="0 0 64 64"><title>paper</title><g class="nc-icon-wrapper" stroke-linecap="square" stroke-linejoin="miter"><polyline fill="none" stroke="currentColor" stroke-miterlimit="10" points="2,19 2,42 2,62 62,62 62,42 62,19 "/> <polyline fill="none" stroke="currentColor" stroke-miterlimit="10" points="10,36 10,2 54,2 54,36 "/> <polyline fill="none" stroke="currentColor" stroke-miterlimit="10" points="2,42 22,42 22,49 42,49 42,42 62,42 "/> <line data-color="color-2" fill="none" stroke-miterlimit="10" x1="21" y1="12" x2="43" y2="12"/> <line data-color="color-2" fill="none" stroke-miterlimit="10" x1="21" y1="22" x2="43" y2="22"/> <line data-color="color-2" fill="none" stroke-miterlimit="10" x1="21" y1="32" x2="32" y2="32"/></g></symbol><symbol id="icon-star" viewBox="0 0 64 64"><title>star</title><g class="nc-icon-wrapper" stroke-linecap="square" stroke-linejoin="miter"><polygon fill="none" stroke="currentColor" stroke-miterlimit="10" points="32,5.846 40.498,23.065 59.5,25.826 45.75,39.229 48.996,58.154 32,49.219 15.004,58.154 18.25,39.229 4.5,25.826 23.502,23.065 "/></g></symbol><symbol id="icon-gift" viewBox="0 0 64 64"><title>gift</title><g class="nc-icon-wrapper" stroke-linecap="square" stroke-linejoin="miter"><polyline fill="none" stroke="currentColor" stroke-miterlimit="10" points="56,24 56,60 8,60 8,24 "/> <rect x="2" y="14" fill="none" stroke="currentColor" stroke-miterlimit="10" width="60" height="10"/> <path data-color="color-2" fill="none" stroke-miterlimit="10" d="M14,8 c0-3.314,2.686-6,6-6c8.875,0,12,12,12,12s-8.686,0-12,0S14,11.314,14,8z"/> <path data-color="color-2" fill="none" stroke-miterlimit="10" d="M50,8 c0-3.314-2.686-6-6-6c-8.875,0-12,12-12,12s8.686,0,12,0S50,11.314,50,8z"/> <polyline data-color="color-2" fill="none" stroke-miterlimit="10" points=" 38,14 38,60 26,60 26,14 "/></g></symbol><symbol id="icon-layers" viewBox="0 0 64 64"><title>layers</title><g class="nc-icon-wrapper" stroke-linecap="square" stroke-linejoin="miter"><polyline data-color="color-2" fill="none" stroke-miterlimit="10" points="
	54.749,28.999 60,32 32,48 4,32 9.25,29 "/>
<polyline data-color="color-2" fill="none" stroke-miterlimit="10" points="
	54.745,41.997 60,45 32,61 4,45 9.25,42 "/>
<polygon fill="none" stroke="currentColor" stroke-miterlimit="10" points="4,19 32,3 60,19 
	32,35 "/></g></symbol><symbol id="icon-people" viewBox="0 0 64 64"><title>people</title><g class="nc-icon-wrapper" stroke-linecap="square" stroke-linejoin="miter"><path data-cap="butt" data-color="color-2" fill="none" stroke-miterlimit="10" d="M21.427,27.439 C20.464,25.41,18.395,24,16,24H8c-3.314,0-6,2.686-6,6v8l4,2l1,14h11" stroke-linecap="butt"/> <circle data-color="color-2" fill="none" stroke-miterlimit="10" cx="12" cy="12" r="6"/> <path data-cap="butt" data-color="color-2" fill="none" stroke-miterlimit="10" d="M42.573,27.439 C43.536,25.41,45.605,24,48,24h8c3.314,0,6,2.686,6,6v8l-4,2l-1,14H46" stroke-linecap="butt"/> <circle data-color="color-2" fill="none" stroke-miterlimit="10" cx="52" cy="12" r="6"/> <path fill="none" stroke="currentColor" stroke-miterlimit="10" d="M38,62H26l-1-16l-5-1V32 c0-4.418,3.582-8,8-8h8c4.418,0,8,3.582,8,8v13l-5,1L38,62z"/> <circle fill="none" stroke="currentColor" stroke-miterlimit="10" cx="32" cy="10" r="8"/></g></symbol><symbol id="icon-settings" viewBox="0 0 64 64"><title>settings</title><g class="nc-icon-wrapper" stroke-linecap="square" stroke-linejoin="miter"><circle data-color="color-2" fill="none" stroke-miterlimit="10" cx="32" cy="32" r="8"/> <path fill="none" stroke="currentColor" stroke-miterlimit="10" d="M62,36v-8l-8.595-1.074 c-0.548-2.322-1.461-4.502-2.681-6.474l5.317-6.836l-5.657-5.657l-6.836,5.317c-1.973-1.219-4.153-2.132-6.474-2.681L36,2h-8 l-1.074,8.595c-2.322,0.548-4.502,1.461-6.474,2.681l-6.836-5.317l-5.657,5.657l5.317,6.836c-1.219,1.973-2.132,4.153-2.681,6.474 L2,28v8l8.595,1.074c0.548,2.322,1.461,4.502,2.681,6.474l-5.317,6.836l5.657,5.657l6.836-5.317 c1.973,1.219,4.153,2.132,6.474,2.681L28,62h8l1.074-8.595c2.322-0.548,4.502-1.461,6.474-2.681l6.836,5.317l5.657-5.657 l-5.317-6.836c1.219-1.973,2.132-4.153,2.681-6.474L62,36z"/></g></symbol><symbol id="icon-vector" viewBox="0 0 64 64"><title>vector</title><g class="nc-icon-wrapper" stroke-linecap="square" stroke-linejoin="miter"><path data-cap="butt" data-color="color-2" fill="none" stroke-miterlimit="10" d="M10,42v-2 c0-10.051,6.794-18.553,16-21.182" stroke-linecap="butt"/> <path data-cap="butt" data-color="color-2" fill="none" stroke-miterlimit="10" d="M54,42v-2 c0-10.051-6.794-18.553-16-21.182" stroke-linecap="butt"/> <rect x="4" y="42" fill="none" stroke="currentColor" stroke-miterlimit="10" width="12" height="12"/> <rect x="48" y="42" fill="none" stroke="currentColor" stroke-miterlimit="10" width="12" height="12"/> <line data-color="color-2" fill="none" stroke-miterlimit="10" x1="14" y1="16" x2="26" y2="16"/> <line data-color="color-2" fill="none" stroke-miterlimit="10" x1="38" y1="16" x2="50" y2="16"/> <circle fill="none" stroke="currentColor" stroke-miterlimit="10" cx="8" cy="16" r="6"/> <circle fill="none" stroke="currentColor" stroke-miterlimit="10" cx="56" cy="16" r="6"/> <rect x="26" y="10" fill="none" stroke="currentColor" stroke-miterlimit="10" width="12" height="12"/></g></symbol></svg>