<svg xmlns="http://www.w3.org/2000/svg" viewBox="0 0 121.93 122.88" fill="#f9a806">
  <path d="M93.8 36.02c0 1.13-.92 2.05-2.05 2.05s-2.05-.92-2.05-2.05v-7.99c0-3.13-.81-6.33-2.21-9.25-1.46-3.04-3.54-5.8-6.01-7.89-5.27-4.47-12.18-6.72-19.13-6.8-7.04-.08-14.09 2.07-19.51 6.39-2.62 2.09-5.01 4.82-6.68 7.88-1.45 2.66-2.35 5.57-2.35 8.5v9.24l.06-.02 1.85 2.29c-.14-3.67-.16-7.61 0-11.08.12-1.19.35-2.38.68-3.57 2.99-10.7 15.2-16.95 25.82-16.37 8.22.45 15.94 3.46 20.82 9.08 6.8 7.87 5.04 17.57 4.81 27.17 1.53.47 2.51 1.43 2.91 3 .44 1.74-.04 4.18-1.51 7.52l-.09.18-6.28 10.34c-2.42 3.98-4.88 7.98-8.15 11.05l-.1.09c.38.59.8 1.26 1.23 1.97 1.02 1.65 2.17 3.49 3.28 5.06 6.89 5.19 24.54 6.38 31.25 10.12 2.2 1.23 4.19 2.79 5.78 4.9 3.95 5.22 4.26 12.44 5.77 18.81-.35 3.76-2.48 5.92-6.68 6.24H6.68c-4.19-.32-6.32-2.48-6.68-6.24 1.51-6.37 1.81-13.59 5.77-18.81 1.6-2.11 3.58-3.67 5.78-4.9 6.72-3.75 24.38-4.94 31.26-10.13 1.08-2.4 2.2-6.13 2.9-8.44l.01-.05.28-.89c.03-.11.08-.2.13-.3-1.97-2.35-3.67-4.99-5.3-7.58l-5.39-8.57c-.41-.03-.81-.1-1.21-.23-4.32-1.36-7.9-10.96-7.2-15.49.4-2.57 1.31-3.49 2.78-4.05-.07-.21-.11-.43-.11-.66v-9.68c0-3.64 1.09-7.21 2.86-10.45 1.94-3.56 4.71-6.73 7.72-9.13C46.44 2.36 54.43-.08 62.37 0c7.88.09 15.73 2.65 21.75 7.76 2.9 2.46 5.35 5.69 7.06 9.26 1.66 3.48 2.63 7.28 2.63 11.02v7.98h-.01zM72.65 77.41c-3 2.2-6.62 3.57-11.23 3.56-5.34-.01-9.36-2.05-12.66-5.07-.24-.22-.48-.44-.71-.67-.91 3.03-2.52 8.37-4.03 10.67 1.74 10 5.61 17.15 9.14 24.76l4.86-16.87c-.62-1.05-.91-1.97-.95-2.76-2.49 1.4-5.17 2.33-7.96 2.95-3.04-3.46-3.3-7.07 0-10.9 3.73.94 7.16 2.54 10.31 4.7.75-.25 1.6-.31 2.42-.18 3.35-2.41 7.65-3.36 11.4-5.16 4.45 4.33 3.97 8.32-.4 12.03-2.64-.61-5.14-1.57-7.52-2.83-.03.64-.19 1.36-.5 2.15l4.86 16.87c3.76-7.91 7.67-15.76 8.56-24.74-1.49-1.92-3.07-4.44-4.43-6.64l-1.16-1.87zm-26.94-3.06l.01-.05-.01.05zm-7.28-28.72l2.39 6.55c.26.76.34 1.42.23 1.99l.02-.02c3.74 4.15 8.35 7.15 13.9 8.91.28-.64.67-1.2 1.24-1.64 1.69-1.31 6.65-1.19 8.18.08 1.28 1.06 1.3 3.5.35 4.77-1.98 2.65-10.22.42-12.98-.47-4.4-1.42-8.41-4.83-12.06-7.89l3.75 5.96c2.21 3.51 4.52 7.09 7.4 9.72 2.77 2.53 6.12 4.24 10.56 4.25 4.81.01 8.32-1.77 11.18-4.44 2.97-2.78 5.31-6.59 7.62-10.39l6.2-10.22c1.16-2.64 1.58-4.41 1.31-5.44-.16-.62-.84-.92-2-.98-.25-.01-.5-.01-.76-.01-.28.01-.57.03-.87.05-.17.01-.33 0-.48-.03-.55.03-1.12-.01-1.7-.09l2.13-9.4c-15.77 2.48-27.56-9.22-44.22-2.34l1.2 11.08c-.67.03-1.31.01-1.9-.08-.23.04-.47.06-.69.08z"/>
</svg>
