<svg version="1.1" xmlns="http://www.w3.org/2000/svg" xmlns:xlink="http://www.w3.org/1999/xlink" x="0px" y="0px" viewBox="0 0 64 64" xml:space="preserve"><title>people</title><g class="nc-icon-wrapper" stroke-linecap="square" stroke-linejoin="miter" stroke-width="4" fill="#f9a806" stroke="#f9a806"><g transform="translate(0 0)"><path data-cap="butt" data-color="color-2" fill="none" stroke-miterlimit="10" d="M21.427,27.439 C20.464,25.41,18.395,24,16,24H8c-3.314,0-6,2.686-6,6v8l4,2l1,14h11" stroke-linecap="butt"/> <circle data-color="color-2" fill="none" stroke-miterlimit="10" cx="12" cy="12" r="6"/> <path data-cap="butt" data-color="color-2" fill="none" stroke-miterlimit="10" d="M42.573,27.439 C43.536,25.41,45.605,24,48,24h8c3.314,0,6,2.686,6,6v8l-4,2l-1,14H46" stroke-linecap="butt"/> <circle data-color="color-2" fill="none" stroke-miterlimit="10" cx="52" cy="12" r="6"/> <path fill="none" stroke="#f9a806" stroke-miterlimit="10" d="M38,62H26l-1-16l-5-1V32 c0-4.418,3.582-8,8-8h8c4.418,0,8,3.582,8,8v13l-5,1L38,62z"/> <circle fill="none" stroke="#f9a806" stroke-miterlimit="10" cx="32" cy="10" r="8"/></g></g></svg>