<svg version="1.1" xmlns="http://www.w3.org/2000/svg" xmlns:xlink="http://www.w3.org/1999/xlink" x="0px" y="0px" viewBox="0 0 64 64" xml:space="preserve"><title>settings</title><g class="nc-icon-wrapper" stroke-linecap="square" stroke-linejoin="miter" stroke-width="4" fill="#f9a806" stroke="#f9a806"><g transform="translate(0 0)"><circle data-color="color-2" fill="none" stroke-miterlimit="10" cx="32" cy="32" r="8"/> <path fill="none" stroke="#f9a806" stroke-miterlimit="10" d="M62,36v-8l-8.595-1.074 c-0.548-2.322-1.461-4.502-2.681-6.474l5.317-6.836l-5.657-5.657l-6.836,5.317c-1.973-1.219-4.153-2.132-6.474-2.681L36,2h-8 l-1.074,8.595c-2.322,0.548-4.502,1.461-6.474,2.681l-6.836-5.317l-5.657,5.657l5.317,6.836c-1.219,1.973-2.132,4.153-2.681,6.474 L2,28v8l8.595,1.074c0.548,2.322,1.461,4.502,2.681,6.474l-5.317,6.836l5.657,5.657l6.836-5.317 c1.973,1.219,4.153,2.132,6.474,2.681L28,62h8l1.074-8.595c2.322-0.548,4.502-1.461,6.474-2.681l6.836,5.317l5.657-5.657 l-5.317-6.836c1.219-1.973,2.132-4.153,2.681-6.474L62,36z"/></g></g></svg>