<svg version="1.1" id="Layer_1" xmlns="http://www.w3.org/2000/svg" x="0" y="0" viewBox="0 0 125 125" xml:space="preserve">
  <style>
    .st0{fill:#e3eaec}.st1{fill:#45515b}
  </style>
  <path class="st0" d="M101.1 116.1H25.9V39.2h75.2v76.9zm-73.2-2h71.2V41.2H27.9v72.9z"/>
  <path class="st0" d="M59.5 89.2L47.8 77.5l1.4-1.4 11 10.9 20.9-20.9 1.4 1.4-21.6 21.7zM81.1 50.2h-2V28.6c0-8.6-7-15.6-15.6-15.6s-15.6 7-15.6 15.6v21.6h-2V28.6c0-9.7 7.9-17.6 17.6-17.6s17.6 7.9 17.6 17.6v21.6z"/>
  <path class="st1" d="M99.1 113.9H23.9V37.1h75.2v76.8zm-73.2-2h71.2V39.1H25.9v72.8z"/>
  <path fill="#1080d0" d="M57.5 87L45.8 75.4l1.4-1.5 11 11L79.1 64l1.4 1.4L58.9 87z"/>
  <path class="st1" d="M79.1 48h-2V26.4c0-8.6-7-15.6-15.6-15.6s-15.6 7-15.6 15.6V48h-2V26.4c0-9.7 7.9-17.6 17.6-17.6s17.6 7.9 17.6 17.6V48z"/>
</svg>
