<svg version="1.1" id="Layer_1" xmlns="http://www.w3.org/2000/svg" x="0" y="0" viewBox="0 0 125 125" xml:space="preserve">
  <style>
    .st0{fill:#fff}.st1{fill:#e3eaec}.st2{fill:#45515b}
  </style>
  <g id="XMLID_656_">
    <path id="XMLID_621_" class="st0" d="M27.6 37.2h83.5v65.9H27.6z"/>
    <path class="st1" d="M111.1 104.1H27.6c-.6 0-1-.4-1-1V37.2c0-.6.4-1 1-1h83.5c.6 0 1 .4 1 1v65.9c0 .6-.5 1-1 1zm-82.5-2h81.5V38.2H28.6v63.9z"/>
  </g>
  <g id="XMLID_652_">
    <path id="XMLID_620_" class="st0" d="M16.9 26h83.5v65.9H16.9z"/>
    <path class="st1" d="M100.4 92.9H16.9c-.6 0-1-.4-1-1V26c0-.6.4-1 1-1h83.5c.6 0 1 .4 1 1v65.9c0 .5-.5 1-1 1zm-82.5-2h81.5V27H17.9v63.9z"/>
    <path id="XMLID_618_" class="st0" d="M16.9 90.2l28.5-30.7 13.2 13.2 17.6-30.8 24.2 48.3"/>
    <path class="st1" d="M100.4 91.2c-.4 0-.7-.2-.9-.6L76.1 44 59.5 73.2c-.2.3-.4.5-.7.5s-.6-.1-.8-.3L45.5 60.9l-27.9 30c-.4.4-1 .4-1.4.1-.4-.4-.4-1-.1-1.4l28.6-30.8c.2-.2.4-.3.7-.3s.5.1.7.3L58.4 71l16.9-29.6c.2-.3.5-.5.9-.5s.7.2.9.6l24.2 48.3c.2.5 0 1.1-.4 1.3-.2.1-.4.1-.5.1z"/>
    <g>
      <circle id="XMLID_617_" class="st0" cx="38.9" cy="43.6" r="8.8"/>
      <path class="st1" d="M38.9 53.3c-5.4 0-9.8-4.4-9.8-9.8s4.4-9.8 9.8-9.8 9.8 4.4 9.8 9.8-4.4 9.8-9.8 9.8zm0-17.5c-4.3 0-7.8 3.5-7.8 7.8s3.5 7.8 7.8 7.8 7.8-3.5 7.8-7.8c-.1-4.3-3.6-7.8-7.8-7.8z"/>
    </g>
  </g>
  <g>
    <g id="XMLID_650_">
      <path id="XMLID_616_" class="st0" d="M24.3 34.5h83.5v65.9H24.3z"/>
      <path class="st2" d="M107.8 101.4H24.3c-.6 0-1-.4-1-1V34.5c0-.6.4-1 1-1h83.5c.6 0 1 .4 1 1v65.9c0 .6-.5 1-1 1zm-82.5-2h81.5V35.5H25.3v63.9z"/>
    </g>
    <g id="XMLID_646_">
      <path id="XMLID_615_" class="st0" d="M13.6 23.2h83.5v65.9H13.6z"/>
      <path class="st2" d="M97.1 90.1H13.6c-.6 0-1-.4-1-1V23.2c0-.6.4-1 1-1h83.5c.6 0 1 .4 1 1v65.9c0 .6-.5 1-1 1zm-82.5-2h81.5V24.2H14.6v63.9z"/>
      <path id="XMLID_614_" class="st0" d="M13.6 87.5l28.5-30.8 13.2 13.2 17.6-30.7 24.2 48.3"/>
      <path class="st2" d="M97.1 88.5c-.4 0-.7-.2-.9-.6L72.8 41.3 56.2 70.4c-.2.3-.4.5-.7.5s-.6-.1-.8-.3L42.2 58.2l-27.9 30c-.4.4-1 .4-1.4.1-.4-.4-.4-1-.1-1.4l28.6-30.8c.2-.2.4-.3.7-.3s.5.1.7.3l12.3 12.3L72 38.7c.2-.3.5-.5.9-.5s.7.2.9.6L98 87c.2.5 0 1.1-.4 1.3-.2.2-.4.2-.5.2z"/>
      <g>
        <circle id="XMLID_613_" cx="35.6" cy="40.8" r="8.8" fill="#f7f7f7"/>
        <path d="M35.6 50.6c-5.4 0-9.8-4.4-9.8-9.8s4.4-9.8 9.8-9.8 9.8 4.4 9.8 9.8-4.4 9.8-9.8 9.8zm0-17.6c-4.3 0-7.8 3.5-7.8 7.8s3.5 7.8 7.8 7.8 7.8-3.5 7.8-7.8c-.1-4.3-3.5-7.8-7.8-7.8z" fill="#1080d0"/>
      </g>
    </g>
  </g>
</svg>
