<svg version="1.1" id="Layer_1" xmlns="http://www.w3.org/2000/svg" x="0" y="0" viewBox="0 0 125 125" xml:space="preserve">
  <style>
    .st0{fill:#e3eaec}.st1{fill:#1080d0}.st2{fill:#45515b}
  </style>
  <g id="XMLID_701_">
    <path class="st0" d="M89.7 51.6c-.3 0-.5-.1-.7-.3l-8.1-8.1-8.1 8.1c-.3.3-.7.4-1.1.2-.4-.2-.6-.5-.6-.9V26.4c0-.6.4-1 1-1s1 .4 1 1v21.8l7.1-7.1c.4-.4 1-.4 1.4 0l7.1 7.1V26.4c0-.6.4-1 1-1s1 .4 1 1v24.2c0 .4-.2.8-.6.9-.2.1-.3.1-.4.1zM63.3 95.6c-.3 0-.5-.1-.7-.3-2.2-2.2-13.4-4.1-19.1-4.1-5.6 0-15.8.9-19.1 4.1-.3.3-.7.4-1.1.2-.4-.2-.6-.5-.6-.9v-66c0-.3.1-.5.3-.7 4.5-4.5 17.8-4.7 20.5-4.7 4.7 0 17.4 1.6 20.5 4.7.2.2.3.4.3.7v65.9c0 .4-.2.8-.6.9-.1.1-.3.2-.4.2zm-19.8-6.4c4.1 0 14.2 1.2 18.8 3.5V29.1c-2.8-2.1-13.4-3.8-18.8-3.8s-15.2.8-18.8 3.8v63.5c5.5-3.3 16.5-3.4 18.8-3.4z"/>
    <path class="st0" d="M102.8 95.6c-.3 0-.5-.1-.7-.3-2.2-2.2-13.4-4.1-19.1-4.1-5.6 0-15.8.9-19.1 4.1-.3.3-.7.4-1.1.2-.4-.2-.6-.5-.6-.9v-66c0-.3.1-.5.3-.7 4.5-4.5 17.8-4.7 20.5-4.7 4.7 0 17.4 1.6 20.5 4.7.2.2.3.4.3.7v65.9c0 .4-.2.8-.6.9-.1.1-.2.2-.4.2zm-19.7-6.4c4.1 0 14.1 1.2 18.8 3.5V29.1c-2.8-2.1-13.4-3.8-18.8-3.8s-15.2.8-18.8 3.8v63.5c5.5-3.3 16.4-3.4 18.8-3.4zM32.5 47.5c-.4 0-.7-.2-.9-.6-.2-.5 0-1.1.5-1.3.2-.1 4.8-2.3 11.4-2.3 7.5 0 11.3 2.2 11.5 2.3.5.3.6.9.3 1.4-.3.5-.9.6-1.4.3 0 0-3.6-2.1-10.5-2.1-6.2 0-10.5 2.1-10.5 2.1-.1.2-.2.2-.4.2zM32.5 60.7c-.4 0-.7-.2-.9-.6-.2-.5 0-1.1.5-1.3.2-.1 4.8-2.3 11.4-2.3 7.5 0 11.3 2.2 11.5 2.3.5.3.6.9.3 1.4s-.9.6-1.4.3c0 0-3.6-2.1-10.5-2.1-6.2 0-10.5 2.1-10.5 2.1-.1.1-.2.2-.4.2zM32.5 73.9c-.4 0-.7-.2-.9-.6-.2-.5 0-1.1.5-1.3.2-.1 4.8-2.3 11.4-2.3 7.5 0 11.3 2.2 11.5 2.3.5.3.6.9.3 1.4-.3.5-.9.6-1.4.3 0 0-3.6-2.1-10.5-2.1-6.2 0-10.5 2.1-10.5 2.1-.1.1-.2.2-.4.2z"/>
    <path class="st0" d="M111.6 104.3h-.1L72.9 100c-.9 2.5-4.8 4.3-9.6 4.3s-8.7-1.8-9.6-4.3l-38.6 4.3c-.3 0-.6-.1-.8-.2-.2-.2-.3-.5-.3-.7V33c0-.5.3-.9.8-1l8.8-2.2c.5-.1 1.1.2 1.2.7.1.5-.2 1.1-.7 1.2l-8 2v68.4L54.4 98c.3 0 .6.1.8.2.2.2.3.5.3.7 0 1.6 3.3 3.4 7.8 3.4s7.8-1.8 7.8-3.4c0-.3.1-.6.3-.7.2-.2.5-.3.8-.2l38.4 4.3V33.8l-8-2c-.5-.1-.9-.7-.7-1.2.1-.5.7-.9 1.2-.7l8.8 2.2c.4.1.8.5.8 1v70.3c0 .3-.1.6-.3.7-.3.2-.5.2-.8.2z"/>
    <path class="st0" d="M54.5 99.9c-.6 0-1-.4-1-1v-6.6c0-.6.4-1 1-1s1 .4 1 1v6.6c0 .6-.4 1-1 1zM72.1 99.9c-.6 0-1-.4-1-1v-6.6c0-.6.4-1 1-1s1 .4 1 1v6.6c0 .6-.5 1-1 1z"/>
  </g>
  <g id="XMLID_691_">
    <path class="st1" d="M87.7 49.1c-.3 0-.5-.1-.7-.3l-8.1-8.1-8.1 8.1c-.3.3-.7.4-1.1.2-.4-.2-.6-.5-.6-.9V24c0-.6.4-1 1-1s1 .4 1 1v21.8l7.1-7.1c.4-.4 1-.4 1.4 0l7.1 7.1V24c0-.6.4-1 1-1s1 .4 1 1v24.2c0 .4-.2.8-.6.9h-.4z"/>
    <path class="st2" d="M61.4 93.1c-.3 0-.5-.1-.7-.3-2.2-2.2-13.4-4.1-19.1-4.1-5.6 0-15.8.9-19.1 4.1-.3.3-.7.4-1.1.2-.4-.2-.6-.5-.6-.9V26.2c0-.3.1-.5.3-.7 4.5-4.5 17.8-4.7 20.5-4.7 4.7 0 17.4 1.6 20.5 4.7.2.2.3.4.3.7v65.9c0 .4-.2.8-.6.9-.2.1-.3.1-.4.1zm-19.8-6.4c4.1 0 14.1 1.2 18.8 3.5V26.6c-2.8-2.1-13.4-3.8-18.8-3.8s-15.2.8-18.8 3.8v63.5c5.5-3.2 16.4-3.4 18.8-3.4z"/>
    <path class="st2" d="M100.9 93.1c-.3 0-.5-.1-.7-.3-2.2-2.2-13.4-4.1-19.1-4.1-5.6 0-15.8.9-19.1 4.1-.3.3-.7.4-1.1.2-.4-.2-.6-.5-.6-.9V26.2c0-.3.1-.5.3-.7 4.5-4.5 17.8-4.7 20.5-4.7 4.7 0 17.4 1.6 20.5 4.7.2.2.3.4.3.7v65.9c0 .4-.2.8-.6.9-.1.1-.3.1-.4.1zm-19.8-6.4c4.1 0 14.2 1.2 18.8 3.5V26.6c-2.8-2.1-13.4-3.8-18.8-3.8s-15.2.8-18.8 3.8v63.5c5.6-3.2 16.5-3.4 18.8-3.4z"/>
    <path class="st1" d="M52.6 45c-.2 0-.4 0-.5-.1 0 0-3.6-2.1-10.5-2.1-6.2 0-10.5 2.1-10.5 2.1-.5.2-1.1 0-1.3-.5-.2-.5 0-1.1.5-1.3.2-.1 4.8-2.3 11.4-2.3 7.5 0 11.3 2.2 11.5 2.3.5.3.6.9.3 1.4-.2.4-.6.5-.9.5zM52.6 58.2c-.2 0-.4 0-.5-.1 0 0-3.6-2.1-10.5-2.1-6.2 0-10.5 2.1-10.5 2.1-.5.2-1.1 0-1.3-.5-.2-.5 0-1.1.5-1.3.2-.1 4.8-2.3 11.4-2.3 7.5 0 11.3 2.2 11.5 2.3.5.3.6.9.3 1.4-.2.3-.6.5-.9.5zM52.6 71.4c-.2 0-.4 0-.5-.1 0 0-3.6-2.1-10.5-2.1-6.2 0-10.5 2.1-10.5 2.1-.5.2-1.1 0-1.3-.5-.2-.5 0-1.1.5-1.3.2-.1 4.8-2.3 11.4-2.3 7.5 0 11.3 2.2 11.5 2.3.5.3.6.9.3 1.4-.2.3-.6.5-.9.5z"/>
    <path class="st2" d="M109.7 101.9h-.1L71 97.6c-.9 2.5-4.8 4.3-9.6 4.3s-8.7-1.8-9.6-4.3l-38.6 4.3c-.3 0-.6-.1-.8-.2-.2-.2-.3-.5-.3-.7V30.6c0-.5.3-.9.8-1l8.8-2.2c.5-.1 1.1.2 1.2.7.1.5-.2 1.1-.7 1.2l-8 2v68.4l38.4-4.3c.3 0 .6.1.8.2s.3.5.3.7c0 1.6 3.3 3.4 7.8 3.4s7.8-1.8 7.8-3.4c0-.3.1-.6.3-.7.2-.2.5-.3.8-.2l38.4 4.3V31.3l-8-2c-.5-.1-.9-.7-.7-1.2.1-.5.7-.9 1.2-.7l8.8 2.2c.4.1.8.5.8 1v70.3c0 .3-.1.6-.3.7-.4.2-.6.3-.9.3z"/>
    <path class="st2" d="M52.6 97.5c-.6 0-1-.4-1-1v-6.6c0-.6.4-1 1-1s1 .4 1 1v6.6c0 .5-.5 1-1 1zM70.2 97.5c-.6 0-1-.4-1-1v-6.6c0-.6.4-1 1-1s1 .4 1 1v6.6c0 .5-.5 1-1 1z"/>
  </g>
</svg>