<svg version="1.1" id="Layer_1" xmlns="http://www.w3.org/2000/svg" x="0" y="0" viewBox="0 0 125 125" xml:space="preserve">
  <style>
    .st0{fill:#e3eaec}.st2{fill:#45515b}
  </style>
  <g id="XMLID_743_">
    <path class="st0" d="M96.6 75.8H28.3c-.6 0-1-.4-1-1s.4-1 1-1h68.3c.6 0 1 .4 1 1s-.4 1-1 1zM80.9 23.1H45.7c-3 0-5.4-2.4-5.4-5.4s2.4-5.4 5.4-5.4h35.2c3 0 5.4 2.4 5.4 5.4s-2.5 5.4-5.4 5.4zm-35.2-8.8c-1.9 0-3.4 1.5-3.4 3.4s1.5 3.4 3.4 3.4h35.2c1.9 0 3.4-1.5 3.4-3.4s-1.5-3.4-3.4-3.4H45.7z"/>
    <path class="st0" d="M63.3 115.3c-19.9 0-36.2-16.2-36.2-36.2 0-14.6 8.6-27.5 22-33.2V22.1c0-.6.4-1 1-1h26.4c.6 0 1 .4 1 1V46c13.4 5.7 22 18.7 22 33.2-.1 19.9-16.3 36.1-36.2 36.1zM51.1 23.1v23.5c0 .4-.2.8-.6.9-13 5.3-21.3 17.7-21.3 31.6 0 18.8 15.3 34.2 34.2 34.2 18.8 0 34.2-15.3 34.2-34.2 0-14-8.4-26.4-21.3-31.6-.4-.2-.6-.5-.6-.9V23.1H51.1z"/>
  </g>
  <g id="XMLID_739_">
    <path d="M94.7 73.3H26.4c-.6 0-1-.4-1-1s.4-1 1-1h68.3c.6 0 1 .4 1 1s-.5 1-1 1z" fill="#1080d0"/>
    <path class="st2" d="M78.9 20.6H43.8c-3 0-5.4-2.4-5.4-5.4s2.4-5.4 5.4-5.4H79c3 0 5.4 2.4 5.4 5.4s-2.5 5.4-5.5 5.4zm-35.1-8.8c-1.9 0-3.4 1.5-3.4 3.4s1.5 3.4 3.4 3.4H79c1.9 0 3.4-1.5 3.4-3.4s-1.5-3.4-3.4-3.4H43.8z"/>
    <path class="st2" d="M61.4 112.9c-19.9 0-36.2-16.2-36.2-36.2 0-14.6 8.6-27.5 22-33.2V19.6c0-.6.4-1 1-1h26.4c.6 0 1 .4 1 1v23.9c13.4 5.7 22 18.7 22 33.2-.1 19.9-16.3 36.2-36.2 36.2zM49.2 20.6v23.5c0 .4-.2.8-.6.9-13 5.3-21.3 17.7-21.3 31.6 0 18.8 15.3 34.2 34.2 34.2s34.2-15.3 34.2-34.2c0-14-8.4-26.4-21.3-31.6-.4-.2-.6-.5-.6-.9V20.6H49.2z"/>
  </g>
</svg>
