<svg version="1.1" id="Layer_1" xmlns="http://www.w3.org/2000/svg" x="0" y="0" viewBox="0 0 125 125" xml:space="preserve">
  <style>
    .st0{fill:#e3eaec}
  </style>
  <g id="XMLID_754_">
    <path class="st0" d="M61.4 114.8H46.5c-1.4 0-2.6-1-2.9-2.4l-1.3-9.4c-2-.9-3.8-1.9-5.5-3.2l-8.8 3.5c-1.3.5-2.8 0-3.5-1.2L17 89.2c-.7-1.2-.4-2.7.6-3.7l7.5-5.9c-.1-1.2-.2-2.3-.2-3.2 0-1 .1-2.1.2-3.2l-7.4-5.8c-1.1-.9-1.4-2.5-.7-3.7l7.5-12.9c.7-1.2 2.2-1.7 3.5-1.2l8.8 3.5c1.7-1.2 3.5-2.3 5.5-3.2l1.3-9.3c.2-1.4 1.5-2.5 2.9-2.5h14.9c1.4 0 2.6 1 2.9 2.4l1.3 9.4c2 .9 3.8 1.9 5.5 3.2l8.8-3.5c1.3-.5 2.8 0 3.5 1.2l7.5 12.9c.7 1.2.4 2.7-.6 3.7l-7.5 5.9c.1 1.2.2 2.3.2 3.2 0 1-.1 2.1-.2 3.2l7.4 5.8c1.1.9 1.4 2.5.7 3.7l-7.5 12.9c-.7 1.2-2.2 1.7-3.5 1.2l-8.8-3.5c-1.7 1.2-3.5 2.3-5.5 3.2l-1.3 9.3c-.3 1.5-1.5 2.5-2.9 2.5zM36.9 97.7c.2 0 .4.1.6.2 1.9 1.5 3.9 2.6 6.1 3.5.3.1.6.4.6.8l1.4 9.9c.1.4.5.7.9.7h14.9c.4 0 .8-.3.9-.8l1.4-9.8c0-.3.3-.6.6-.8 2.2-1 4.3-2.2 6.1-3.6.3-.2.7-.3 1-.1l9.3 3.7c.4.1.8 0 1.1-.4l7.5-12.9c.2-.4.1-.9-.2-1.1L81 80.9c-.3-.2-.4-.6-.4-.9.2-1.3.3-2.4.3-3.5s-.1-2.2-.3-3.6c0-.4.1-.7.4-.9l7.9-6.2c.3-.3.4-.7.2-1.1l-7.5-12.9c-.2-.4-.7-.5-1.1-.4l-9.3 3.7c-.3.1-.7.1-1-.1-1.9-1.5-3.9-2.6-6.1-3.5-.3-.1-.6-.4-.6-.8l-1.4-9.9c-.1-.4-.5-.7-.9-.7H46.5c-.4 0-.8.3-.9.8l-1.4 9.8c0 .3-.3.6-.6.8-2.2 1-4.3 2.1-6.1 3.6-.3.2-.7.3-1 .1l-9.3-3.7c-.4-.1-.8 0-1.1.4l-7.5 12.9c-.2.4-.1.9.2 1.1l7.9 6.2c.3.2.4.6.4.9-.2 1.3-.3 2.4-.3 3.5s.1 2.2.3 3.6c0 .4-.1.7-.4.9l-7.9 6.2c-.3.3-.4.7-.2 1.1l7.5 12.9c.2.4.7.5 1.1.4l9.3-3.7c.1-.2.3-.2.4-.2zm17-9.3c-6.6 0-12-5.4-12-12s5.4-12 12-12 12 5.4 12 12-5.4 12-12 12zm0-21.9c-5.5 0-10 4.5-10 10s4.5 10 10 10 10-4.5 10-10-4.5-10-10-10zM95.4 49.9h-7.2c-.9 0-1.7-.7-1.9-1.6l-.6-4.2c-.8-.3-1.5-.8-2.3-1.3l-4 1.6c-1 .3-1.9 0-2.4-.8l-3.6-6.2c-.4-.8-.3-1.8.4-2.4l3.4-2.7c0-.4-.1-.9-.1-1.3s0-.9.1-1.3L73.8 27c-.7-.6-.9-1.6-.5-2.4l3.6-6.3c.5-.8 1.5-1.1 2.3-.8l4 1.6c.7-.5 1.5-.9 2.3-1.3l.6-4.2c.2-.9 1-1.6 1.9-1.6h7.2c1 0 1.8.7 1.9 1.7l.6 4.2c.8.3 1.5.8 2.3 1.3l4-1.6c1-.3 1.9 0 2.4.8l3.6 6.2c.4.8.3 1.8-.4 2.4l-3.4 2.7c0 .4.1.9.1 1.3 0 .5 0 .9-.1 1.3l3.4 2.7h.1c.7.6.9 1.6.4 2.4l-3.6 6.3c-.5.8-1.5 1.1-2.3.8l-4-1.6c-.7.5-1.4.9-2.3 1.3l-.6 4.2c-.1.8-.9 1.5-1.9 1.5zm-7.1-2h7.1l.7-4.7c0-.3.3-.6.6-.8 1.1-.5 2.1-1 2.8-1.6.3-.2.7-.3 1-.1l4.4 1.8 3.5-6.1-3.8-2.9c-.3-.2-.4-.6-.4-.9.1-.6.1-1.1.1-1.6 0-.6 0-1.1-.1-1.6-.1-.4.1-.7.4-1l3.8-2.9-3.5-6.1-4.4 1.8c-.3.1-.7.1-1-.1-.9-.7-1.9-1.3-2.8-1.6-.3-.1-.6-.4-.6-.8l-.7-4.7h-7.1l-.7 4.7c0 .3-.3.6-.6.8-1.1.5-2.1 1-2.9 1.6-.3.2-.7.3-1 .1l-4.4-1.8-3.5 6.1 3.8 2.9c.3.2.4.6.4.9-.1.5-.1 1.1-.1 1.6s0 1.1.1 1.6c0 .3-.1.7-.4.9l-3.8 2.9 3.5 6.1 4.4-1.8c.3-.1.7-.1 1 .1.9.7 1.9 1.3 2.8 1.6.3.1.6.4.6.8l.8 4.8zm-9.5-5.4zm26-23.4zm-13 18.8c-3.9 0-7-3.2-7-7s3.2-7 7-7 7 3.2 7 7-3.1 7-7 7zm0-12.1c-2.8 0-5 2.3-5 5s2.3 5 5 5 5-2.3 5-5-2.2-5-5-5z"/>
  </g>
  <g id="XMLID_747_">
    <path d="M59.5 112.3h-15c-1.4 0-2.6-1-2.8-2.4l-1.3-9.4c-2-.9-3.8-1.9-5.5-3.2l-8.8 3.5c-1.3.5-2.8 0-3.5-1.2l-7.5-12.9c-.7-1.2-.4-2.7.6-3.7l7.5-5.9C23.1 76 23 75 23 74s.1-2 .2-3.2L15.7 65c-1.1-.9-1.4-2.5-.7-3.7l7.5-12.9c.7-1.2 2.2-1.7 3.5-1.2l8.8 3.5c1.7-1.2 3.5-2.3 5.5-3.2l1.3-9.3c.2-1.4 1.5-2.5 2.9-2.5h14.9c1.4 0 2.6 1 2.8 2.4l1.3 9.4c2 .9 3.8 1.9 5.5 3.2l8.8-3.5c1.3-.5 2.8 0 3.5 1.2l7.5 12.9c.7 1.2.4 2.7-.6 3.7l-7.5 5.9c.2 1 .3 2.1.3 3.1s-.1 2.1-.2 3.2l7.4 5.8c1.1.9 1.4 2.5.7 3.7l-7.5 12.9c-.7 1.2-2.2 1.7-3.5 1.2l-8.8-3.5c-1.7 1.2-3.5 2.3-5.5 3.2l-1.3 9.3c-.2 1.5-1.4 2.5-2.8 2.5zM35 95.2c.2 0 .4.1.6.2 1.9 1.5 3.9 2.6 6.1 3.5.3.1.6.4.6.8l1.4 9.9c.1.4.5.7.9.7h14.9c.4 0 .8-.3.9-.8l1.4-9.8c0-.3.3-.6.6-.8 2.2-1 4.3-2.2 6.1-3.6.3-.2.7-.3 1-.1l9.3 3.7c.4.1.8 0 1.1-.4l7.5-12.9c.2-.4.1-.9-.2-1.1l-7.9-6.2c-.3-.2-.4-.6-.4-.9.2-1.3.3-2.4.3-3.5s-.1-2.2-.3-3.6c0-.4.1-.7.4-.9l7.9-6.2c.3-.3.4-.7.2-1.1l-7.5-12.9c-.2-.4-.7-.5-1.1-.4l-9.3 3.7c-.3.1-.7.1-1-.1-1.9-1.5-3.9-2.6-6.1-3.5-.3-.1-.6-.4-.6-.8l-1.4-9.9c-.1-.4-.5-.7-.9-.7h-15c-.4 0-.8.3-.9.8l-1.4 9.8c0 .3-.3.6-.6.8-2.2 1-4.3 2.2-6.1 3.6-.3.2-.7.3-1 .1L25.3 49c-.4-.1-.8 0-1.1.4l-7.5 12.9c-.2.4-.1.8.2 1.1l7.9 6.2c.3.2.4.6.4.9-.1 1.3-.2 2.4-.2 3.5s.1 2.2.3 3.6c0 .3-.1.7-.4.9L17 84.6c-.3.3-.4.7-.2 1.1l7.5 12.9c.2.4.7.5 1.1.4l9.3-3.7s.2-.1.3-.1zM52 86c-6.6 0-12-5.4-12-12s5.4-12 12-12 12 5.4 12 12-5.4 12-12 12zm0-22c-5.5 0-10 4.5-10 10s4.5 10 10 10 10-4.5 10-10-4.5-10-10-10z" fill="#45515b"/>
    <path d="M93.5 47.4h-7.2c-.9 0-1.7-.7-1.9-1.6l-.6-4.2c-.8-.3-1.5-.8-2.3-1.3l-4 1.6c-1 .3-1.9 0-2.4-.8l-3.6-6.2c-.4-.8-.3-1.8.4-2.4l3.4-2.7c0-.4-.1-.9-.1-1.3s0-.9.1-1.3L72 24.4c-.7-.6-.9-1.6-.5-2.4l3.6-6.3c.5-.8 1.5-1.1 2.3-.8l4 1.6c.7-.5 1.5-.9 2.3-1.3l.6-4.2c.2-.9 1-1.6 1.9-1.6h7.2c1 0 1.8.7 1.9 1.7l.6 4.2c.8.3 1.5.8 2.3 1.3l4-1.6c1-.3 1.9 0 2.4.8l3.6 6.2c.4.8.3 1.8-.4 2.4l-3.4 2.7c0 .4.1.9.1 1.3 0 .5 0 .9-.1 1.3l3.4 2.7c.7.6.9 1.6.4 2.4l-3.6 6.3c-.5.8-1.5 1.2-2.3.8l-4-1.6c-.7.5-1.4.9-2.3 1.3l-.6 4.2c-.1 1-1 1.6-1.9 1.6zm-7.1-2h7.1l.7-4.7c0-.3.3-.6.6-.8 1.1-.5 2.1-1 2.8-1.6.3-.2.7-.3 1-.1L103 40l3.5-6.1-3.8-2.9c-.3-.2-.4-.6-.4-.9.1-.6.1-1.1.1-1.6 0-.6 0-1.1-.1-1.6-.1-.4.1-.7.4-1l3.8-2.9-3.5-6.1-4.4 1.8c-.3.1-.7.1-1-.1-.9-.7-1.9-1.3-2.8-1.6-.3-.1-.6-.4-.6-.8l-.7-4.7h-7.1l-.7 4.7c0 .3-.3.6-.6.8-1.1.5-2.1 1-2.9 1.6-.3.2-.7.3-1 .1l-4.4-1.8-3.5 6.1 3.8 2.9c.3.2.4.6.4.9-.1.5-.1 1.1-.1 1.6s0 1.1.1 1.6c0 .3-.1.7-.4.9l-3.8 2.9 3.5 6.1 4.4-1.8c.3-.1.7-.1 1 .1.9.7 1.9 1.3 2.8 1.6.3.1.6.4.6.8l.8 4.8zM76.9 40zm26-23.3zm-13 18.7c-3.9 0-7-3.2-7-7s3.2-7 7-7 7 3.2 7 7-3.1 7-7 7zm0-12.1c-2.8 0-5 2.3-5 5s2.3 5 5 5 5-2.3 5-5-2.2-5-5-5z" fill="#1080d0"/>
  </g>
</svg>
