<svg version="1.1" id="Layer_1" xmlns="http://www.w3.org/2000/svg" x="0" y="0" viewBox="0 0 125 125" xml:space="preserve">
  <style>
    .st0{fill:#e3eaec}
  </style>
  <g id="play_10_">
    <path class="st0" d="M108.7 106.2H17.6c-3.3 0-6-2.7-6-6V26.7c0-3.3 2.7-6 6-6h91.1c3.3 0 6 2.7 6 6v73.5c0 3.3-2.7 6-6 6zM17.6 22.7c-2.2 0-4 1.8-4 4v73.5c0 2.2 1.8 4 4 4h91.1c2.2 0 4-1.8 4-4V26.7c0-2.2-1.8-4-4-4H17.6z"/>
    <path class="st0" d="M52.2 84.2c-.2 0-.3 0-.5-.1-.3-.2-.5-.5-.5-.9V43.7c0-.4.2-.7.5-.9.3-.2.7-.2 1 0l30.8 19.8c.3.2.5.5.5.8s-.2.7-.5.8L52.7 84.1c-.2.1-.3.1-.5.1zm1-38.7v35.9l27.9-17.9-27.9-18z"/>
  </g>
  <g id="play_9_">
    <path d="M106.8 103.7H15.7c-3.3 0-6-2.7-6-6V24.3c0-3.3 2.7-6 6-6h91.1c3.3 0 6 2.7 6 6v73.5c0 3.3-2.7 5.9-6 5.9zM15.7 20.3c-2.2 0-4 1.8-4 4v73.5c0 2.2 1.8 4 4 4h91.1c2.2 0 4-1.8 4-4V24.3c0-2.2-1.8-4-4-4H15.7z" fill="#45515b"/>
    <path d="M50.2 81.8c-.2 0-.3 0-.5-.1-.3-.2-.5-.5-.5-.9V41.2c0-.4.2-.7.5-.9.3-.2.7-.2 1 0l30.8 19.8c.3.2.5.5.5.8s-.2.7-.5.8L50.8 81.6c-.2.1-.4.2-.6.2zm1-38.7V79l28-18-28-17.9z" fill="#1080d0"/>
  </g>
</svg>
