<svg version="1.1" id="Layer_1" xmlns="http://www.w3.org/2000/svg" x="0" y="0" viewBox="0 0 125 125" xml:space="preserve">
  <style>
    .st0{fill:#e3eaec}.st1{fill:#45515b}.st2{fill:#1080d0}
  </style>
  <g id="equalizer_1_10_">
    <path class="st0" d="M104.6 106.5H22c-5.6 0-10.2-4.4-10.2-9.8V30.8c0-5.4 4.6-9.8 10.2-9.8h82.7c5.6 0 10.2 4.4 10.2 9.8v65.9c-.1 5.4-4.6 9.8-10.3 9.8zM22 23.1c-4.5 0-8.2 3.5-8.2 7.8v65.9c0 4.3 3.7 7.8 8.2 7.8h82.7c4.5 0 8.2-3.5 8.2-7.8v-66c0-4.3-3.7-7.8-8.2-7.8H22z"/>
    <g id="XMLID_774_">
      <path class="st0" d="M34.7 62.6h-8.8c-.6 0-1-.4-1-1s.4-1 1-1h8.8c.6 0 1 .4 1 1s-.4 1-1 1zM30.3 53.8c-.6 0-1-.4-1-1V35.2c0-.6.4-1 1-1s1 .4 1 1v17.6c0 .6-.4 1-1 1zM30.3 93.4c-.6 0-1-.4-1-1v-22c0-.6.4-1 1-1s1 .4 1 1v22c0 .5-.4 1-1 1zM56.7 80.2h-8.8c-.6 0-1-.4-1-1s.4-1 1-1h8.8c.6 0 1 .4 1 1s-.4 1-1 1zM52.3 71.4c-.6 0-1-.4-1-1V35.2c0-.6.4-1 1-1s1 .4 1 1v35.2c0 .5-.4 1-1 1zM52.3 93.4c-.6 0-1-.4-1-1V88c0-.6.4-1 1-1s1 .4 1 1v4.4c0 .5-.4 1-1 1zM78.7 53.8h-8.8c-.6 0-1-.4-1-1s.4-1 1-1h8.8c.6 0 1 .4 1 1s-.5 1-1 1zM74.3 45c-.6 0-1-.4-1-1v-8.8c0-.6.4-1 1-1s1 .4 1 1V44c0 .6-.5 1-1 1zM74.3 93.4c-.6 0-1-.4-1-1V61.6c0-.6.4-1 1-1s1 .4 1 1v30.8c0 .5-.5 1-1 1zM100.6 71.4h-8.8c-.6 0-1-.4-1-1s.4-1 1-1h8.8c.6 0 1 .4 1 1s-.4 1-1 1zM96.2 62.6c-.6 0-1-.4-1-1V35.2c0-.6.4-1 1-1s1 .4 1 1v26.4c0 .6-.4 1-1 1zM96.2 93.4c-.6 0-1-.4-1-1V79.2c0-.6.4-1 1-1s1 .4 1 1v13.2c0 .5-.4 1-1 1z"/>
    </g>
  </g>
  <g id="equalizer_1_9_">
    <path class="st1" d="M102.7 104.1H20c-5.6 0-10.2-4.4-10.2-9.8V28.4c0-5.4 4.6-9.8 10.2-9.8h82.7c5.6 0 10.2 4.4 10.2 9.8v65.9c0 5.4-4.6 9.8-10.2 9.8zM20 20.6c-4.5 0-8.2 3.5-8.2 7.8v65.9c0 4.3 3.7 7.8 8.2 7.8h82.7c4.5 0 8.2-3.5 8.2-7.8V28.4c0-4.3-3.7-7.8-8.2-7.8H20z"/>
    <g id="XMLID_761_">
      <path class="st2" d="M32.8 60.1H24c-.6 0-1-.4-1-1s.4-1 1-1h8.8c.6 0 1 .4 1 1s-.4 1-1 1z"/>
      <path class="st1" d="M28.4 51.3c-.6 0-1-.4-1-1V32.8c0-.6.4-1 1-1s1 .4 1 1v17.6c0 .5-.4.9-1 .9zM28.4 90.9c-.6 0-1-.4-1-1v-22c0-.6.4-1 1-1s1 .4 1 1v22c0 .5-.4 1-1 1z"/>
      <path class="st2" d="M54.8 77.7H46c-.6 0-1-.4-1-1s.4-1 1-1h8.8c.6 0 1 .4 1 1s-.5 1-1 1z"/>
      <path class="st1" d="M50.4 68.9c-.6 0-1-.4-1-1V32.8c0-.6.4-1 1-1s1 .4 1 1V68c0 .5-.5.9-1 .9zM50.4 90.9c-.6 0-1-.4-1-1v-4.4c0-.6.4-1 1-1s1 .4 1 1v4.4c0 .5-.5 1-1 1z"/>
      <path class="st2" d="M76.8 51.3H68c-.6 0-1-.4-1-1s.4-1 1-1h8.8c.6 0 1 .4 1 1s-.5 1-1 1z"/>
      <path class="st1" d="M72.4 42.6c-.6 0-1-.4-1-1v-8.8c0-.6.4-1 1-1s1 .4 1 1v8.8c0 .5-.5 1-1 1zM72.4 90.9c-.6 0-1-.4-1-1V59.1c0-.6.4-1 1-1s1 .4 1 1v30.8c0 .5-.5 1-1 1z"/>
      <path class="st2" d="M98.7 68.9h-8.8c-.6 0-1-.4-1-1s.4-1 1-1h8.8c.6 0 1 .4 1 1s-.4 1-1 1z"/>
      <path class="st1" d="M94.3 60.1c-.6 0-1-.4-1-1V32.8c0-.6.4-1 1-1s1 .4 1 1v26.4c0 .5-.4.9-1 .9zM94.3 90.9c-.6 0-1-.4-1-1V76.7c0-.6.4-1 1-1s1 .4 1 1v13.2c0 .5-.4 1-1 1z"/>
    </g>
  </g>
</svg>
